<?xml version="1.0" encoding="UTF-8"?>
<svg id="Layer_1" data-name="Layer 1" xmlns="http://www.w3.org/2000/svg" viewBox="0 0 960 960">
  <defs>
    <style>
      .cls-1 {
        fill: #5433eb;
      }

      .cls-1, .cls-2 {
        stroke-width: 0px;
      }

      .cls-2 {
        fill: none;
      }
    </style>
  </defs>
  <path class="cls-1" d="M903.69,371.3h-270.65c-18.35,0-33.21,14.86-33.21,33.21v151.06c0,18.34,14.86,33.21,33.21,33.21h270.65c18.34,0,33.21-14.87,33.21-33.21v-151.06c0-18.35-14.87-33.21-33.21-33.21ZM704.53,485.13h-24.1v38.28h-15.51v-99.22h39.61c22.01,0,33.71,11.19,33.71,29.89s-11.7,31.05-33.71,31.05ZM808.72,522.9c-12.98,3.44-18.96-1.66-19.97-11.58-3.57,8.91-11.32,14.12-23.15,14.12-15.78,0-22.9-9.54-22.9-19.6,0-12.2,10.18-19.21,28.62-21.24l16.41-1.78v-3.31c.13-7.25-4.32-11.45-13.99-11.45-9.16,0-14.37,4.46-14.37,11.83h-14.24c0-15.51,10.56-24.67,28.87-24.67s28.62,9.03,28.62,24.29v25.95c0,5.47,1.02,7.38,6.24,6.87l-.13,10.56ZM855.97,528.38c-6.48,15.77-16.91,20.48-33.2,20.48h-6.99v-12.98h7.5c8.91,0,13.24-2.79,17.94-10.8l-28.87-67.8h16.03l20.61,49.47,18.31-49.47h15.65l-26.97,71.11Z"/>
  <g>
    <path class="cls-1" d="M787.35,494.15c-.64,11.19-8.14,19.84-18.57,19.84-8.01,0-11.19-4.32-11.19-8.65,0-5.85,6.61-8.52,19.58-10.05l10.18-1.14Z"/>
    <path class="cls-1" d="M722.21,454.59c0,9.8-6.74,15.65-20.61,15.65h-21.16v-31.29h20.53c14.25,0,21.24,5.85,21.24,15.64Z"/>
  </g>
  <path class="cls-2" d="M722.21,454.59c0,9.8-6.74,15.65-20.61,15.65h-21.16v-31.29h20.53c14.25,0,21.24,5.85,21.24,15.64Z"/>
  <path class="cls-2" d="M787.35,494.16c-.64,11.19-8.14,19.84-18.57,19.84-8.01,0-11.19-4.32-11.19-8.65,0-5.85,6.61-8.52,19.58-10.05l10.18-1.14Z"/>
  <path class="cls-1" d="M86.4,466.87c-21.52-4.64-31.11-6.46-31.11-14.71,0-7.76,6.49-11.62,19.47-11.62,11.41,0,19.76,4.96,25.9,14.68.46.75,1.42,1.01,2.2.61l24.22-12.17c.87-.43,1.19-1.53.7-2.36-10.05-17.33-28.62-26.82-53.07-26.82-32.13,0-52.09,15.75-52.09,40.78,0,26.59,24.3,33.31,45.86,37.95,21.55,4.64,31.17,6.46,31.17,14.71s-7.01,12.14-21,12.14c-12.92,0-22.51-5.88-28.3-17.3-.43-.84-1.45-1.18-2.29-.75l-24.16,11.91c-.84.43-1.19,1.44-.75,2.31,9.59,19.18,29.26,29.96,55.53,29.96,33.46,0,53.68-15.49,53.68-41.3s-24.42-33.31-45.94-37.95v-.06Z"/>
  <path class="cls-1" d="M216.18,414.46c-13.73,0-25.87,4.84-34.59,13.47-.55.52-1.45.14-1.45-.61v-55.05c0-.95-.75-1.7-1.71-1.7h-30.3c-.96,0-1.71.75-1.71,1.7v170.87c0,.95.75,1.7,1.71,1.7h30.3c.96,0,1.71-.75,1.71-1.7v-74.95c0-14.48,11.15-25.58,26.19-25.58s25.93,10.87,25.93,25.58v74.95c0,.95.75,1.7,1.71,1.7h30.3c.96,0,1.71-.75,1.71-1.7v-74.95c0-31.49-20.74-53.73-49.8-53.73Z"/>
  <path class="cls-1" d="M327.46,409.55c-16.45,0-31.87,5.02-42.93,12.26-.75.49-1.01,1.5-.55,2.28l13.35,22.7c.49.81,1.54,1.1,2.35.61,8.4-5.05,18.02-7.67,27.84-7.61,26.45,0,45.89,18.57,45.89,43.11,0,20.91-15.56,36.39-35.28,36.39-16.08,0-27.23-9.31-27.23-22.47,0-7.53,3.21-13.7,11.59-18.05.87-.46,1.19-1.53.67-2.36l-12.6-21.23c-.41-.69-1.28-1.01-2.06-.72-16.89,6.23-28.74,21.23-28.74,41.36,0,30.45,24.36,53.18,58.34,53.18,39.69,0,68.22-27.37,68.22-66.62,0-42.08-33.2-72.82-78.85-72.82Z"/>
  <path class="cls-1" d="M494.95,414.18c-15.32,0-29.03,5.65-39.02,15.57-.55.55-1.45.14-1.45-.61v-11.94c0-.95-.75-1.7-1.71-1.7h-29.52c-.96,0-1.71.75-1.71,1.7v170.61c0,.95.75,1.7,1.71,1.7h30.3c.96,0,1.71-.75,1.71-1.7v-55.95c0-.75.9-1.12,1.45-.63,9.97,9.23,23.15,14.62,38.24,14.62,35.54,0,63.27-28.64,63.27-65.84s-27.75-65.84-63.27-65.84ZM489.22,516.97c-20.22,0-35.54-16.01-35.54-37.17s15.3-37.17,35.54-37.17,35.52,15.75,35.52,37.17-15.06,37.17-35.55,37.17h.03Z"/>
</svg>